<svg xmlns="http://www.w3.org/2000/svg" width="64" height="64" viewBox="0 0 64 64">
  <!-- 平民：草绿上衣 + 棕色帽子 + 布包 -->
  <ellipse cx="32" cy="61" rx="18" ry="3" fill="#00000033"/>
  <!-- 腿 -->
  <rect x="24" y="52" width="6" height="8" rx="2.5" fill="#4a6b3a"/>
  <rect x="34" y="52" width="6" height="8" rx="2.5" fill="#4a6b3a"/>
  <rect x="22.5" y="58.5" width="9" height="3.5" rx="1.5" fill="#33482a"/>
  <rect x="32.5" y="58.5" width="9" height="3.5" rx="1.5" fill="#33482a"/>
  <!-- 躯干 -->
  <path d="M 21 44 L 43 44 L 41 54 L 23 54 Z" fill="#3f9d5f" stroke="#1e5c33" stroke-width="2.5"/>
  <!-- 斜挎包 -->
  <path d="M 30 44 L 38 53" stroke="#8a6b30" stroke-width="4" stroke-linecap="round"/>
  <rect x="34" y="50" width="8" height="7" rx="2.5" fill="#c9a35c" stroke="#8a6b30" stroke-width="1.5"/>
  <!-- 手臂 -->
  <path d="M 21 45 Q 15 48 16 53" stroke="#3f9d5f" stroke-width="6" fill="none" stroke-linecap="round"/>
  <path d="M 43 45 Q 49 48 48 53" stroke="#3f9d5f" stroke-width="6" fill="none" stroke-linecap="round"/>
  <circle cx="16" cy="54" r="2.8" fill="#e8c39e"/>
  <circle cx="48" cy="54" r="2.8" fill="#e8c39e"/>
  <!-- 头 -->
  <circle cx="32" cy="27" r="14" fill="#e8c39e" stroke="#c99b72" stroke-width="2"/>
  <!-- 草帽 -->
  <ellipse cx="32" cy="22" rx="17" ry="5.5" fill="#c9a35c" stroke="#8a6b30" stroke-width="2.5"/>
  <path d="M 18 22 Q 18 10 32 10 Q 46 10 46 22 L 44 22 Q 44 13 32 13 Q 20 13 20 22 Z" fill="#d8b878" stroke="#8a6b30" stroke-width="2"/>
  <!-- 眼睛 -->
  <circle cx="26.5" cy="29" r="2.6" fill="#1e3a22"/>
  <circle cx="37.5" cy="29" r="2.6" fill="#1e3a22"/>
  <circle cx="27.3" cy="28.2" r="0.9" fill="#ffffff"/>
  <circle cx="38.3" cy="28.2" r="0.9" fill="#ffffff"/>
  <!-- 嘴（微笑） -->
  <path d="M 28 36 Q 32 38.5 36 36" stroke="#8a6b30" stroke-width="2" fill="none" stroke-linecap="round"/>
  <!-- 腮红 -->
  <circle cx="22.5" cy="34" r="2.5" fill="#e89a9a88"/>
  <circle cx="41.5" cy="34" r="2.5" fill="#e89a9a88"/>
</svg>
